<svg xmlns="http://www.w3.org/2000/svg" xmlns:svg="http://www.w3.org/2000/svg" id="svg2" width="708.708" height="649.697" version="1.1" viewBox="0 0 708.708 649.697"><defs id="defs4"><marker id="InfiniteLineEnd" orient="auto" refX="0" refY="0" style="overflow:visible"><g style="fill:#000;fill-opacity:1;stroke:#000;stroke-opacity:1" id="g4550"><circle style="fill:#000;fill-opacity:1;stroke:#000;stroke-opacity:1" id="circle4552" cx="3" cy="0" r=".8"/><circle style="fill:#000;fill-opacity:1;stroke:#000;stroke-opacity:1" id="circle4554" cx="6.5" cy="0" r=".8"/><circle style="fill:#000;fill-opacity:1;stroke:#000;stroke-opacity:1" id="circle4556" cx="10" cy="0" r=".8"/></g></marker><marker id="InfiniteLineStart" orient="auto" refX="0" refY="0" style="overflow:visible"><g style="fill:#000;fill-opacity:1;stroke:#000;stroke-opacity:1" id="g4559" transform="translate(-13,0)"><circle style="fill:#000;fill-opacity:1;stroke:#000;stroke-opacity:1" id="circle4561" cx="3" cy="0" r=".8"/><circle style="fill:#000;fill-opacity:1;stroke:#000;stroke-opacity:1" id="circle4563" cx="6.5" cy="0" r=".8"/><circle style="fill:#000;fill-opacity:1;stroke:#000;stroke-opacity:1" id="circle4565" cx="10" cy="0" r=".8"/></g></marker><marker id="marker18317" orient="auto" refX="0" refY="0" style="overflow:visible"><path id="path18319" d="M 0,0 5,-5 -12.5,0 5,5 0,0 Z" transform="matrix(-0.4,0,0,-0.4,-4,0)" style="fill:#000;fill-opacity:1;fill-rule:evenodd;stroke:#000;stroke-width:1pt;stroke-opacity:1"/></marker><marker style="overflow:visible" id="marker6077" orient="auto" refX="0" refY="0"><path style="fill:#000;fill-opacity:1;fill-rule:evenodd;stroke:#000;stroke-width:1pt;stroke-opacity:1" id="path6079" d="M 0,0 5,-5 -12.5,0 5,5 0,0 Z" transform="matrix(-0.4,0,0,-0.4,-4,0)"/></marker><marker style="overflow:visible" id="marker6025" orient="auto" refX="0" refY="0"><path style="fill:#000;fill-opacity:1;fill-rule:evenodd;stroke:#000;stroke-width:1pt;stroke-opacity:1" id="path6027" d="M 0,0 5,-5 -12.5,0 5,5 0,0 Z" transform="matrix(-0.4,0,0,-0.4,-4,0)"/></marker><marker style="overflow:visible" id="marker5979" orient="auto" refX="0" refY="0"><path style="fill:#000;fill-opacity:1;fill-rule:evenodd;stroke:#000;stroke-width:1pt;stroke-opacity:1" id="path5981" d="M 0,0 5,-5 -12.5,0 5,5 0,0 Z" transform="matrix(-0.4,0,0,-0.4,-4,0)"/></marker><marker style="overflow:visible" id="marker5939" orient="auto" refX="0" refY="0"><path style="fill:#000;fill-opacity:1;fill-rule:evenodd;stroke:#000;stroke-width:1pt;stroke-opacity:1" id="path5941" d="M 0,0 5,-5 -12.5,0 5,5 0,0 Z" transform="matrix(-0.4,0,0,-0.4,-4,0)"/></marker><marker style="overflow:visible" id="marker5905" orient="auto" refX="0" refY="0"><path style="fill:#000;fill-opacity:1;fill-rule:evenodd;stroke:#000;stroke-width:1pt;stroke-opacity:1" id="path5907" d="M 0,0 5,-5 -12.5,0 5,5 0,0 Z" transform="matrix(-0.4,0,0,-0.4,-4,0)"/></marker><marker id="marker5865" orient="auto" refX="0" refY="0" style="overflow:visible"><path id="path5867" d="M 0,0 5,-5 -12.5,0 5,5 0,0 Z" transform="matrix(-0.4,0,0,-0.4,-4,0)" style="fill:#000;fill-opacity:1;fill-rule:evenodd;stroke:#000;stroke-width:1pt;stroke-opacity:1"/></marker><marker style="overflow:visible" id="Arrow1Mend" orient="auto" refX="0" refY="0"><path style="fill:#000;fill-opacity:1;fill-rule:evenodd;stroke:#000;stroke-width:1pt;stroke-opacity:1" id="path4324" d="M 0,0 5,-5 -12.5,0 5,5 0,0 Z" transform="matrix(-0.4,0,0,-0.4,-4,0)"/></marker><marker style="overflow:visible" id="Arrow1Lend" orient="auto" refX="0" refY="0"><path style="fill:#000;fill-opacity:1;fill-rule:evenodd;stroke:#000;stroke-width:1pt;stroke-opacity:1" id="path4318" d="M 0,0 5,-5 -12.5,0 5,5 0,0 Z" transform="matrix(-0.8,0,0,-0.8,-10,0)"/></marker></defs><metadata id="metadata7"/><g id="layer1" transform="translate(-21.352315,-651.64457)"><flowRoot style="font-style:normal;font-weight:400;font-size:20px;line-height:125%;font-family:sans-serif;letter-spacing:0;word-spacing:0;fill:#000;fill-opacity:1;stroke:none;stroke-width:1px;stroke-linecap:butt;stroke-linejoin:miter;stroke-opacity:1" id="flowRoot4144" transform="translate(0,652.3622)" xml:space="preserve"><flowRegion id="flowRegion4146"><rect id="rect4148" width="16.263" height="31.113" x="76.014" y="194.232"/></flowRegion><flowPara id="flowPara4150"/></flowRoot><g id="g24073" transform="matrix(1.3085291,0,0,1.3085291,-2.291366,-161.6785)"><g id="g4259" transform="matrix(1.1808325,0,0,1.1808325,41.130211,-109.33097)"><ellipse id="path3338" cx="217.259" cy="698.102" rx="75.484" ry="25.456" style="fill:none;stroke:#000;stroke-width:3;stroke-miterlimit:4;stroke-dasharray:none;stroke-opacity:1"/><text id="text4152" x="153.442" y="703.759" xml:space="preserve" style="font-style:normal;font-weight:400;font-size:20px;line-height:125%;font-family:sans-serif;letter-spacing:0;word-spacing:0;fill:#000;fill-opacity:1;stroke:none;stroke-width:1px;stroke-linecap:butt;stroke-linejoin:miter;stroke-opacity:1"><tspan id="tspan4154" x="153.442" y="703.759">unscheduled</tspan></text></g><g id="g4254" transform="matrix(1.1808325,0,0,1.1808325,39.669,-94.328059)"><text id="text4156" x="176.606" y="788.794" xml:space="preserve" style="font-style:normal;font-weight:400;font-size:20px;line-height:125%;font-family:sans-serif;letter-spacing:0;word-spacing:0;fill:#000;fill-opacity:1;stroke:none;stroke-width:1px;stroke-linecap:butt;stroke-linejoin:miter;stroke-opacity:1"><tspan id="tspan4158" x="176.606" y="788.794">pending</tspan></text><ellipse id="path3338-0" cx="218.496" cy="782.955" rx="58.16" ry="21.92" style="fill:none;stroke:#000;stroke-width:3;stroke-miterlimit:4;stroke-dasharray:none;stroke-opacity:1"/></g><g id="g4249" transform="matrix(1.1808325,0,0,1.1808325,40.503957,-81.830075)"><text id="text4160" x="178.637" y="875.768" xml:space="preserve" style="font-style:normal;font-weight:400;font-size:20px;line-height:125%;font-family:sans-serif;letter-spacing:0;word-spacing:0;fill:#000;fill-opacity:1;stroke:none;stroke-width:1px;stroke-linecap:butt;stroke-linejoin:miter;stroke-opacity:1"><tspan id="tspan4162" x="178.637" y="875.768">running</tspan></text><ellipse id="path3338-0-3" cx="217.789" cy="869.929" rx="48.614" ry="21.92" style="fill:none;stroke:#000;stroke-width:3;stroke-miterlimit:4;stroke-dasharray:none;stroke-opacity:1"/></g><g id="g4239" transform="matrix(1.1808325,0,0,1.1808325,41.195688,-44.045445)"><text id="text4172" x="190.254" y="964.681" xml:space="preserve" style="font-style:normal;font-weight:400;font-size:20px;line-height:125%;font-family:sans-serif;letter-spacing:0;word-spacing:0;fill:#000;fill-opacity:1;stroke:none;stroke-width:1px;stroke-linecap:butt;stroke-linejoin:miter;stroke-opacity:1"><tspan id="tspan4174" x="190.254" y="964.681">failed</tspan></text><ellipse id="path3338-0-2" cx="217.203" cy="957.489" rx="39.068" ry="21.92" style="fill:none;stroke:#000;stroke-width:3;stroke-miterlimit:4;stroke-dasharray:none;stroke-opacity:1"/></g><g id="g4234" transform="matrix(1.1808325,0,0,1.1808325,82.948543,-40.431379)"><text id="text4176" x="288.853" y="960.804" xml:space="preserve" style="font-style:normal;font-weight:400;font-size:20px;line-height:125%;font-family:sans-serif;letter-spacing:0;word-spacing:0;fill:#000;fill-opacity:1;stroke:none;stroke-width:1px;stroke-linecap:butt;stroke-linejoin:miter;stroke-opacity:1"><tspan id="tspan4178" x="288.853" y="960.804">exception</tspan></text><ellipse id="path3338-0-8" cx="339.058" cy="954.428" rx="59.927" ry="21.92" style="fill:none;stroke:#000;stroke-width:3;stroke-miterlimit:4;stroke-dasharray:none;stroke-opacity:1"/></g><g id="g4244" transform="matrix(1.1808325,0,0,1.1808325,-3.9584206,-39.178907)"><text id="text4164" x="38.891" y="960.804" xml:space="preserve" style="font-style:normal;font-weight:400;font-size:20px;line-height:125%;font-family:sans-serif;letter-spacing:0;word-spacing:0;fill:#000;fill-opacity:1;stroke:none;stroke-width:1px;stroke-linecap:butt;stroke-linejoin:miter;stroke-opacity:1"><tspan id="tspan4168" x="38.891" y="960.804">completed</tspan></text><ellipse id="path3338-0-0" cx="92.156" cy="953.367" rx="68.766" ry="21.92" style="fill:none;stroke:#000;stroke-width:3;stroke-miterlimit:4;stroke-dasharray:none;stroke-opacity:1"/></g><path style="fill:none;fill-rule:evenodd;stroke:#000;stroke-width:2.9520812;stroke-linecap:butt;stroke-linejoin:miter;stroke-miterlimit:4;stroke-dasharray:5.90416251,2.95208125;stroke-dashoffset:0;stroke-opacity:1;marker-end:url(#marker6077)" id="path4293" d="m 231.92193,738.807 c -17.0265,22.70869 -9.47106,56.51831 1.66994,73.89525"/><path style="fill:none;fill-rule:evenodd;stroke:#000;stroke-width:2.9520812;stroke-linecap:butt;stroke-linejoin:miter;stroke-miterlimit:4;stroke-dasharray:none;stroke-dashoffset:0;stroke-opacity:1;marker-end:url(#marker5939)" id="path4295" d="m 298.7199,858.62585 0,53.85587"/><path style="fill:none;fill-rule:evenodd;stroke:#000;stroke-width:2.9520812;stroke-linecap:butt;stroke-linejoin:miter;stroke-miterlimit:4;stroke-dasharray:none;stroke-dashoffset:0;stroke-opacity:1;marker-end:url(#marker5905)" id="path4297" d="M 238.18424,949.22061 C 108.3347,925.03214 143.35199,854.16196 226.0771,834.41159"/><path style="fill:none;fill-rule:evenodd;stroke:#000;stroke-width:2.9520812;stroke-linecap:butt;stroke-linejoin:miter;stroke-miterlimit:4;stroke-dasharray:none;stroke-dashoffset:0;stroke-opacity:1;marker-end:url(#marker5979)" id="path4299" d="m 252.3788,966.33758 c -35.09366,28.65511 -59.53818,51.36262 -99.36199,91.84722"/><path style="fill:none;fill-rule:evenodd;stroke:#000;stroke-width:2.9520812;stroke-linecap:butt;stroke-linejoin:miter;stroke-miterlimit:4;stroke-dasharray:none;stroke-dashoffset:0;stroke-opacity:1;marker-end:url(#marker6025)" id="path4301" d="m 285.3603,974.68733 c -22.98689,28.66747 -30.03399,54.41247 -16.282,83.07997"/><path style="fill:none;fill-rule:evenodd;stroke:#000;stroke-width:2.9520812;stroke-linecap:butt;stroke-linejoin:miter;stroke-miterlimit:4;stroke-dasharray:none;stroke-dashoffset:0;stroke-opacity:1;marker-end:url(#marker5865)" id="path4303" d="m 359.67304,945.88071 c 67.30591,42.60793 80.61263,67.94709 89.3423,109.79919"/><g id="g5837" transform="matrix(1.1808325,0,0,1.1808325,-3.9584206,-113.08836)" style="stroke:#000;stroke-opacity:1"><path id="path4719" d="m 318.90516,718.25424 c 85.43691,54.24002 110.38249,157.58194 127.98632,275.4181" style="fill:none;fill-rule:evenodd;stroke:#000;stroke-width:2.5;stroke-linecap:butt;stroke-linejoin:miter;stroke-miterlimit:4;stroke-dasharray:5,2.5;stroke-dashoffset:0;stroke-opacity:1;marker-end:url(#Arrow1Mend)"/><path id="path5825" d="m 313.95541,797.45021 c 63.26471,12.8063 89.92577,56.34934 115.31509,101.47962" style="fill:none;fill-rule:evenodd;stroke:#000;stroke-width:2.5;stroke-linecap:butt;stroke-linejoin:miter;stroke-miterlimit:4;stroke-dasharray:5,2.5;stroke-dashoffset:0;stroke-opacity:1"/></g><text style="font-style:normal;font-weight:400;font-size:17.71248817px;line-height:125%;font-family:sans-serif;letter-spacing:0;word-spacing:0;fill:#000;fill-opacity:1;stroke:none;stroke-width:1px;stroke-linecap:butt;stroke-linejoin:miter;stroke-opacity:1" id="text5827" x="920.559" y="-196.066" transform="matrix(0.31311249,0.94971605,-0.94971605,0.31311249,0,0)" xml:space="preserve"><tspan id="tspan5829" x="920.559" y="-196.066">deadline-exceeded</tspan></text><text style="font-style:normal;font-weight:400;font-size:17.71248817px;line-height:125%;font-family:sans-serif;text-align:start;letter-spacing:0;word-spacing:0;text-anchor:start;fill:#000;fill-opacity:1;stroke:none;stroke-width:1px;stroke-linecap:butt;stroke-linejoin:miter;stroke-opacity:1" id="text7209" x="229.027" y="769.284" xml:space="preserve"><tspan id="tspan7211" x="229.027" y="769.284">scheduleTask</tspan><tspan id="tspan7213" x="229.027" y="785.539" style="font-size:11.80832481px;text-align:start;text-anchor:start">(or dependencies resolved)</tspan></text><text style="font-style:normal;font-weight:400;font-size:17.71248817px;line-height:125%;font-family:sans-serif;letter-spacing:0;word-spacing:0;fill:#000;fill-opacity:1;stroke:none;stroke-width:1px;stroke-linecap:butt;stroke-linejoin:miter;stroke-opacity:1" id="text9087" x="309.992" y="890.355" xml:space="preserve"><tspan id="tspan9089" x="309.992" y="890.355">claimWork</tspan></text><text style="font-style:normal;font-weight:400;font-size:17.71248817px;line-height:125%;font-family:sans-serif;letter-spacing:0;word-spacing:0;fill:#000;fill-opacity:1;stroke:none;stroke-width:1px;stroke-linecap:butt;stroke-linejoin:miter;stroke-opacity:1" id="text13537" x="269.078" y="1022.281" xml:space="preserve"><tspan id="tspan13539" x="269.078" y="1022.281">reportFailed</tspan></text><text style="font-style:normal;font-weight:400;font-size:17.71248817px;line-height:125%;font-family:sans-serif;letter-spacing:0;word-spacing:0;fill:#000;fill-opacity:1;stroke:none;stroke-width:1px;stroke-linecap:butt;stroke-linejoin:miter;stroke-opacity:1" id="text13545" x="954.478" y="329.356" transform="matrix(0.65842888,0.75264295,-0.75264295,0.65842888,0,0)" xml:space="preserve"><tspan id="tspan13547" x="954.478" y="329.356">reportException</tspan></text><text style="font-style:normal;font-weight:400;font-size:17.71248817px;line-height:125%;font-family:sans-serif;letter-spacing:0;word-spacing:0;fill:#000;fill-opacity:1;stroke:none;stroke-width:1px;stroke-linecap:butt;stroke-linejoin:miter;stroke-opacity:1" id="text16651" x="45.723" y="1008.086" xml:space="preserve"><tspan id="tspan16653" x="45.723" y="1008.086">reportCompleted</tspan></text><text style="font-style:normal;font-weight:400;font-size:17.71248817px;line-height:125%;font-family:sans-serif;letter-spacing:0;word-spacing:0;fill:#000;fill-opacity:1;stroke:none;stroke-width:1px;stroke-linecap:butt;stroke-linejoin:miter;stroke-opacity:1" id="text16661" x="28.606" y="856.538" xml:space="preserve"><tspan id="tspan16663" x="28.606" y="856.538">reportException</tspan><tspan id="tspan16665" x="28.606" y="874.265" style="font-size:13.28436565px">(worker-shutdown)</tspan></text><path style="fill:none;fill-rule:evenodd;stroke:#000;stroke-width:2.9520812;stroke-linecap:butt;stroke-linejoin:miter;stroke-miterlimit:4;stroke-dasharray:5.90416251,2.95208125;stroke-dashoffset:0;stroke-opacity:1;marker-end:url(#marker18317)" id="path18309" d="m 274.63416,625.7537 c -5.13768,19.42521 -0.0482,34.59521 9.60193,53.07485"/><text style="font-style:normal;font-weight:400;font-size:17.71248817px;line-height:125%;font-family:sans-serif;letter-spacing:0;word-spacing:0;fill:#000;fill-opacity:1;stroke:none;stroke-width:1px;stroke-linecap:butt;stroke-linejoin:miter;stroke-opacity:1" id="text21135" x="283.911" y="644.696" xml:space="preserve"><tspan id="tspan21137" x="283.911" y="644.696">createTask</tspan></text></g></g></svg>